<svg xmlns="http://www.w3.org/2000/svg" version="1.1" xmlns:xlink="http://www.w3.org/1999/xlink" xmlns:svgjs="http://svgjs.dev/svgjs" width="2000" height="232" viewBox="0 0 2000 232"><g transform="matrix(1,0,0,1,-1.2121212121212466,-0.404900071499128)"><svg viewBox="0 0 396 46" data-background-color="#000000" preserveAspectRatio="xMidYMid meet" height="232" width="2000" xmlns="http://www.w3.org/2000/svg" xmlns:xlink="http://www.w3.org/1999/xlink"><g id="tight-bounds" transform="matrix(1,0,0,1,0.2400000000000091,0.0802819107282744)"><svg viewBox="0 0 395.52 45.83943617854346" height="45.83943617854346" width="395.52"><g><svg viewBox="0 0 395.52000000000004 45.839436178543465" height="45.83943617854346" width="395.52"><g><svg viewBox="0 0 395.52000000000004 45.839436178543465" height="45.839436178543465" width="395.52000000000004"><g id="textblocktransform"><svg viewBox="0 0 395.52000000000004 45.839436178543465" height="45.839436178543465" width="395.52000000000004" id="textblock"><g><svg viewBox="0 0 395.52000000000004 45.839436178543465" height="45.839436178543465" width="395.52000000000004"><g transform="matrix(1,0,0,1,0,0)"><svg width="395.52000000000004" viewBox="0 -35.95 386.32 44.400000000000006" height="45.839436178543465" data-palette-color="url(#efc4dfce-bac5-45c4-8051-ca180bf88661)"><g class="wordmark-text-0" data-fill-palette-color="primary" id="text-0"></g></svg></g></svg></g></svg></g></svg></g></svg></g><defs></defs><mask id="cb7e7966-647e-4315-9f63-59cd008cb43c"><g id="SvgjsG6755"><svg viewBox="0 0 395.52 45.83943617854346" height="45.83943617854346" width="395.52"><g><svg viewBox="0 0 395.52000000000004 45.839436178543465" height="45.83943617854346" width="395.52"><g><svg viewBox="0 0 395.52000000000004 45.839436178543465" height="45.839436178543465" width="395.52000000000004"><g id="SvgjsG6754"><svg viewBox="0 0 395.52000000000004 45.839436178543465" height="45.839436178543465" width="395.52000000000004" id="SvgjsSvg6753"><g><svg viewBox="0 0 395.52000000000004 45.839436178543465" height="45.839436178543465" width="395.52000000000004"><g transform="matrix(1,0,0,1,0,0)"><svg width="395.52000000000004" viewBox="0 -35.95 386.32 44.400000000000006" height="45.839436178543465" data-palette-color="url(#efc4dfce-bac5-45c4-8051-ca180bf88661)"><g class="wordmark-text-0" data-fill-palette-color="primary" id="SvgjsG6752"><path d="M19.75-21.8L19.75-21.8Q18.85-20.85 17.7-20.4L17.7-20.4Q22.6-19.7 25.15-16.93 27.7-14.15 27.7-10.15L27.7-10.15Q27.7-5.3 23.8-2.3 19.9 0.7 13.55 0.7 7.2 0.7 3.6-2.43 0-5.55 0-11.25L0-11.25Q0-11.55 0-11.85L0-11.85 0.55-11.95Q1.55-4.5 6.75-2.3L6.75-2.3 6.75-31.4Q6.65-32.75 5.73-33.63 4.8-34.5 3.5-34.5L3.5-34.5 2.9-34.5 2.9-35 11.3-35Q16-35 18.82-32.85 21.65-30.7 21.65-27.23 21.65-23.75 19.75-21.8ZM10.65-33.4L10-33.4 10-1.4Q11.65-1.15 13.8-1.15L13.8-1.15Q18.6-1.15 21.28-3.73 23.95-6.3 23.95-10.4L23.95-10.4Q23.95-12.6 23.13-14.3 22.3-16 21.05-16.95L21.05-16.95Q17.75-19.5 11.75-19.5L11.75-19.5Q11.7-19.5 11.7-19.5L11.7-19.5 11.65-19.95Q11.7-19.95 11.7-19.95L11.7-19.95Q14.25-19.95 16.07-21.63 17.9-23.3 17.9-26.8L17.9-26.8Q17.9-33.4 10.65-33.4L10.65-33.4 10.65-33.4ZM43-33.45L43-33.45 39.8-33.45 39.8-3.65Q39.8-2.35 40.72-1.43 41.65-0.5 43-0.5L43-0.5 43.6-0.5 43.65 0 32.7 0 32.7-0.5 33.35-0.5Q34.65-0.5 35.57-1.4 36.5-2.3 36.55-3.6L36.55-3.6 36.55-31.35Q36.5-32.65 35.57-33.58 34.65-34.5 33.35-34.5L33.35-34.5 32.7-34.5 32.7-35 46.2-35Q50.75-35 53.35-32.48 55.95-29.95 55.95-25.93 55.95-21.9 53.47-18.98 51-16.05 47.45-16.05L47.45-16.05Q48.2-15.7 49.22-14.68 50.25-13.65 51.05-12.55L51.05-12.55Q55.35-6.4 56.65-4.98 57.95-3.55 58.5-3.03 59.05-2.5 59.7-2 60.35-1.5 61-1.2L61-1.2Q62.45-0.5 64.1-0.5L64.1-0.5 64.1 0 61.35 0Q59.2 0 57.35-0.78 55.5-1.55 54.57-2.38 53.65-3.2 52.97-3.98 52.3-4.75 49.25-9.15 46.2-13.55 45.7-14.18 45.2-14.8 44.65-15.4L44.65-15.4Q43.05-17.1 41.45-17.1L41.45-17.1 41.45-17.6Q41.85-17.55 42.5-17.55 43.15-17.55 44.1-17.6L44.1-17.6Q50.3-17.75 51.9-22.8L51.9-22.8Q52.2-23.8 52.2-24.68 52.2-25.55 52.2-25.8L52.2-25.8Q52.1-29.15 50.45-31.2 48.8-33.25 46-33.4L46-33.4Q44.8-33.45 43-33.45ZM66.55-0.5L67.2-0.5Q68.5-0.5 69.42-1.43 70.34-2.35 70.39-3.65L70.39-3.65 70.39-31.4Q70.34-32.7 69.42-33.6 68.5-34.5 67.2-34.5L67.2-34.5 66.55-34.5 66.55-35 77.5-35 77.5-34.5 76.84-34.5Q75.55-34.5 74.62-33.6 73.7-32.7 73.65-31.4L73.65-31.4 73.65-3.65Q73.65-2.35 74.59-1.43 75.55-0.5 76.84-0.5L76.84-0.5 77.5-0.5 77.5 0 66.55 0 66.55-0.5ZM116.19-0.5L116.19-0.5 116.59-0.5 116.59 0 105.34 0 105.34-0.5 105.79-0.5Q106.84-0.5 107.37-1.18 107.89-1.85 107.89-2.45 107.89-3.05 107.69-3.65L107.69-3.65 104.49-12.15 90.99-12.15 87.64-3.6Q87.44-3 87.44-2.43 87.44-1.85 87.97-1.18 88.49-0.5 89.54-0.5L89.54-0.5 89.99-0.5 89.99 0 79.94 0 79.94-0.5 80.39-0.5Q81.64-0.5 82.84-1.3 84.04-2.1 84.79-3.65L84.79-3.65 96.09-30.55Q97.94-34.6 97.94-35.7L97.94-35.7 98.39-35.7 111.79-3.65Q112.49-2.1 113.69-1.3 114.89-0.5 116.19-0.5ZM97.89-29.7L91.59-13.65 103.89-13.65 97.89-29.7ZM155.84-34.5L154.94-34.5Q153.69-34.5 152.79-33.63 151.89-32.75 151.84-31.5L151.84-31.5 151.84-5.7Q151.84-2.8 152.19-0.2L152.19-0.2 152.29 0.7 151.84 0.7 124.59-28.4 124.59-3.5Q124.59-2.25 125.49-1.38 126.39-0.5 127.64-0.5L127.64-0.5 128.59-0.5 128.59 0 118.29 0 118.29-0.5 119.24-0.5Q120.49-0.5 121.39-1.38 122.29-2.25 122.29-3.55L122.29-3.55 122.29-29.5Q122.29-32.55 121.94-34.95L121.94-34.95 121.84-35.75 122.34-35.75 149.59-6.65 149.59-31.45Q149.54-32.75 148.64-33.63 147.74-34.5 146.49-34.5L146.49-34.5 145.54-34.5 145.54-35 155.84-35 155.84-34.5Z" fill="white"></path><path d="M181.64-0.5L181.64-0.5 182.29-0.5 182.29 0 171.34 0 171.34-0.5 171.99-0.5Q173.29-0.5 174.21-1.43 175.14-2.35 175.19-3.65L175.19-3.65 175.19-31.4Q175.14-32.7 174.21-33.6 173.29-34.5 171.99-34.5L171.99-34.5 171.34-34.5 171.34-35 182.29-35 182.29-34.5 181.64-34.5Q180.34-34.5 179.41-33.6 178.49-32.7 178.44-31.4L178.44-31.4 178.44-3.65Q178.44-2.35 179.39-1.43 180.34-0.5 181.64-0.5ZM216.29 7.5L216.29 7.5 216.29 8Q214.39 8.45 212.49 8.45L212.49 8.45Q204.29 8.45 196.59 0.25L196.59 0.25 180.04-17.4 191.84-32.2Q192.24-32.7 192.24-33.1 192.24-33.5 192.09-33.8L192.09-33.8Q191.69-34.55 190.64-34.55L190.64-34.55 190.14-34.55 190.14-35 200.69-35 200.69-34.55 200.49-34.55Q197.19-34.55 195.09-32.2L195.09-32.2 183.44-18.75 200.44-0.6Q203.74 2.95 207.86 5.23 211.99 7.5 216.29 7.5ZM204.79-0.5L205.44-0.5Q206.74-0.5 207.66-1.43 208.59-2.35 208.64-3.65L208.64-3.65 208.64-31.4Q208.59-32.7 207.66-33.6 206.74-34.5 205.44-34.5L205.44-34.5 204.79-34.5 204.79-35 215.74-35 215.74-34.5 215.09-34.5Q213.79-34.5 212.86-33.6 211.94-32.7 211.89-31.4L211.89-31.4 211.89-3.65Q211.89-2.35 212.84-1.43 213.79-0.5 215.09-0.5L215.09-0.5 215.74-0.5 215.74 0 204.79 0 204.79-0.5ZM263.68-0.5L263.68-0.5 264.48-0.5 264.48 0 253.63 0 253.63-0.45 254.38-0.45Q255.23-0.45 255.83-1.1 256.43-1.75 256.33-2.6L256.33-2.6 254.08-27.75 243.58-4.4Q242.18-1.35 241.88 0.7L241.88 0.7 241.38 0.7 228.58-27.05 226.43-2.6Q226.33-1.8 226.93-1.13 227.53-0.45 228.38-0.45L228.38-0.45 229.13-0.45 229.13 0 219.43 0 219.43-0.5 220.23-0.5Q221.63-0.5 222.66-1.35 223.68-2.2 223.88-3.65L223.88-3.65 227.63-35.7 228.13-35.7 242.08-5.55 255.73-35.7 256.18-35.7 260.03-3.65Q260.23-2.2 261.28-1.35 262.33-0.5 263.68-0.5ZM300.98-0.5L300.98-0.5 301.38-0.5 301.38 0 290.13 0 290.13-0.5 290.58-0.5Q291.63-0.5 292.16-1.18 292.68-1.85 292.68-2.45 292.68-3.05 292.48-3.65L292.48-3.65 289.28-12.15 275.78-12.15 272.43-3.6Q272.23-3 272.23-2.43 272.23-1.85 272.76-1.18 273.28-0.5 274.33-0.5L274.33-0.5 274.78-0.5 274.78 0 264.73 0 264.73-0.5 265.18-0.5Q266.43-0.5 267.63-1.3 268.83-2.1 269.58-3.65L269.58-3.65 280.88-30.55Q282.73-34.6 282.73-35.7L282.73-35.7 283.18-35.7 296.58-3.65Q297.28-2.1 298.48-1.3 299.68-0.5 300.98-0.5ZM282.68-29.7L276.38-13.65 288.68-13.65 282.68-29.7ZM330.28-29.7L330.28-30.55Q330.28-31.75 329.43-32.63 328.58-33.5 327.43-33.55L327.43-33.55 317.93-33.55 317.93-3.6Q317.98-2.3 318.9-1.4 319.83-0.5 321.13-0.5L321.13-0.5 321.78-0.5 321.78 0 310.83 0 310.83-0.5 311.48-0.5Q312.78-0.5 313.7-1.4 314.63-2.3 314.68-3.55L314.68-3.55 314.68-33.55 305.18-33.55Q303.98-33.5 303.15-32.63 302.33-31.75 302.33-30.55L302.33-30.55 302.33-29.7 301.83-29.65 301.83-35.95Q302.58-35.65 304.43-35.35 306.28-35.05 307.83-35.05L307.83-35.05 324.73-35.05Q327.18-35.05 328.8-35.43 330.43-35.8 330.78-35.95L330.78-35.95 330.78-29.65 330.28-29.7ZM358.43-0.5L359.08-0.5Q360.38-0.5 361.3-1.43 362.23-2.35 362.28-3.6L362.28-3.6 362.28-16.55 341.83-16.55 341.83-3.6Q341.83-2.3 342.78-1.4 343.73-0.5 345.03-0.5L345.03-0.5 345.68-0.5 345.68 0 334.73 0 334.73-0.5 335.38-0.5Q336.68-0.5 337.6-1.4 338.53-2.3 338.58-3.6L338.58-3.6 338.58-31.4Q338.53-32.7 337.6-33.6 336.68-34.5 335.38-34.5L335.38-34.5 334.73-34.5 334.73-35 345.68-35 345.68-34.5 345.03-34.5Q343.73-34.5 342.8-33.6 341.88-32.7 341.83-31.4L341.83-31.4 341.83-18.05 362.28-18.05 362.28-31.4Q362.23-33.2 360.68-34.1L360.68-34.1Q359.93-34.5 359.08-34.5L359.08-34.5 358.43-34.5 358.43-35 369.38-35 369.38-34.5 368.73-34.5Q367.43-34.5 366.5-33.58 365.58-32.65 365.53-31.35L365.53-31.35 365.53-3.6Q365.58-2.3 366.5-1.4 367.43-0.5 368.73-0.5L368.73-0.5 369.38-0.5 369.38 0 358.43 0 358.43-0.5ZM375.37-0.5L376.02-0.5Q377.32-0.5 378.25-1.43 379.17-2.35 379.22-3.65L379.22-3.65 379.22-31.4Q379.17-32.7 378.25-33.6 377.32-34.5 376.02-34.5L376.02-34.5 375.37-34.5 375.37-35 386.32-35 386.32-34.5 385.67-34.5Q384.37-34.5 383.45-33.6 382.52-32.7 382.47-31.4L382.47-31.4 382.47-3.65Q382.47-2.35 383.42-1.43 384.37-0.5 385.67-0.5L385.67-0.5 386.32-0.5 386.32 0 375.37 0 375.37-0.5Z" fill="black"></path></g></svg></g></svg></g></svg></g></svg></g></svg></g><defs><mask></mask></defs></svg><rect width="395.52" height="45.83943617854346" fill="black" stroke="none" visibility="hidden"></rect></g></mask><linearGradient x1="0.054" x2="0.941" y1="0.5" y2="0.5" id="efc4dfce-bac5-45c4-8051-ca180bf88661"><stop stop-color="#9c7945" offset="0"></stop><stop stop-color="#faf3aa" offset="0.498"></stop><stop stop-color="#9c7945" offset="1"></stop></linearGradient><rect width="395.52" height="45.83943617854346" fill="url(#efc4dfce-bac5-45c4-8051-ca180bf88661)" mask="url(#cb7e7966-647e-4315-9f63-59cd008cb43c)" data-fill-palette-color="primary"></rect><mask id="00a6d887-a4a2-40e4-9c5b-c2f3b3aff8d8"><g id="SvgjsG6763"><svg viewBox="0 0 395.52 45.83943617854346" height="45.83943617854346" width="395.52"><g><svg viewBox="0 0 395.52000000000004 45.839436178543465" height="45.83943617854346" width="395.52"><g><svg viewBox="0 0 395.52000000000004 45.839436178543465" height="45.839436178543465" width="395.52000000000004"><g id="SvgjsG6762"><svg viewBox="0 0 395.52000000000004 45.839436178543465" height="45.839436178543465" width="395.52000000000004" id="SvgjsSvg6761"><g><svg viewBox="0 0 395.52000000000004 45.839436178543465" height="45.839436178543465" width="395.52000000000004"><g transform="matrix(1,0,0,1,0,0)"><svg width="395.52000000000004" viewBox="0 -35.95 386.32 44.400000000000006" height="45.839436178543465" data-palette-color="url(#efc4dfce-bac5-45c4-8051-ca180bf88661)"><g class="wordmark-text-0" data-fill-palette-color="primary" id="SvgjsG6760"><path d="M181.64-0.5L181.64-0.5 182.29-0.5 182.29 0 171.34 0 171.34-0.5 171.99-0.5Q173.29-0.5 174.21-1.43 175.14-2.35 175.19-3.65L175.19-3.65 175.19-31.4Q175.14-32.7 174.21-33.6 173.29-34.5 171.99-34.5L171.99-34.5 171.34-34.5 171.34-35 182.29-35 182.29-34.5 181.64-34.5Q180.34-34.5 179.41-33.6 178.49-32.7 178.44-31.4L178.44-31.4 178.44-3.65Q178.44-2.35 179.39-1.43 180.34-0.5 181.64-0.5ZM216.29 7.5L216.29 7.5 216.29 8Q214.39 8.45 212.49 8.45L212.49 8.45Q204.29 8.45 196.59 0.25L196.59 0.25 180.04-17.4 191.84-32.2Q192.24-32.7 192.24-33.1 192.24-33.5 192.09-33.8L192.09-33.8Q191.69-34.55 190.64-34.55L190.64-34.55 190.14-34.55 190.14-35 200.69-35 200.69-34.55 200.49-34.55Q197.19-34.55 195.09-32.2L195.09-32.2 183.44-18.75 200.44-0.6Q203.74 2.95 207.86 5.23 211.99 7.5 216.29 7.5ZM204.79-0.5L205.44-0.5Q206.74-0.5 207.66-1.43 208.59-2.35 208.64-3.65L208.64-3.65 208.64-31.4Q208.59-32.7 207.66-33.6 206.74-34.5 205.44-34.5L205.44-34.5 204.79-34.5 204.79-35 215.74-35 215.74-34.5 215.09-34.5Q213.79-34.5 212.86-33.6 211.94-32.7 211.89-31.4L211.89-31.4 211.89-3.65Q211.89-2.35 212.84-1.43 213.79-0.5 215.09-0.5L215.09-0.5 215.74-0.5 215.74 0 204.79 0 204.79-0.5ZM263.68-0.5L263.68-0.5 264.48-0.5 264.48 0 253.63 0 253.63-0.45 254.38-0.45Q255.23-0.45 255.83-1.1 256.43-1.75 256.33-2.6L256.33-2.6 254.08-27.75 243.58-4.4Q242.18-1.35 241.88 0.7L241.88 0.7 241.38 0.7 228.58-27.05 226.43-2.6Q226.33-1.8 226.93-1.13 227.53-0.45 228.38-0.45L228.38-0.45 229.13-0.45 229.13 0 219.43 0 219.43-0.5 220.23-0.5Q221.63-0.5 222.66-1.35 223.68-2.2 223.88-3.65L223.88-3.65 227.63-35.7 228.13-35.7 242.08-5.55 255.73-35.7 256.18-35.7 260.03-3.65Q260.23-2.2 261.28-1.35 262.33-0.5 263.68-0.5ZM300.98-0.5L300.98-0.5 301.38-0.5 301.38 0 290.13 0 290.13-0.5 290.58-0.5Q291.63-0.5 292.16-1.18 292.68-1.85 292.68-2.45 292.68-3.05 292.48-3.65L292.48-3.65 289.28-12.15 275.78-12.15 272.43-3.6Q272.23-3 272.23-2.43 272.23-1.85 272.76-1.18 273.28-0.5 274.33-0.5L274.33-0.5 274.78-0.5 274.78 0 264.73 0 264.73-0.5 265.18-0.5Q266.43-0.5 267.63-1.3 268.83-2.1 269.58-3.65L269.58-3.65 280.88-30.55Q282.73-34.6 282.73-35.7L282.73-35.7 283.18-35.7 296.58-3.65Q297.28-2.1 298.48-1.3 299.68-0.5 300.98-0.5ZM282.68-29.7L276.38-13.65 288.68-13.65 282.68-29.7ZM330.28-29.7L330.28-30.55Q330.28-31.75 329.43-32.63 328.58-33.5 327.43-33.55L327.43-33.55 317.93-33.55 317.93-3.6Q317.98-2.3 318.9-1.4 319.83-0.5 321.13-0.5L321.13-0.5 321.78-0.5 321.78 0 310.83 0 310.83-0.5 311.48-0.5Q312.78-0.5 313.7-1.4 314.63-2.3 314.68-3.55L314.68-3.55 314.68-33.55 305.18-33.55Q303.98-33.5 303.15-32.63 302.33-31.75 302.33-30.55L302.33-30.55 302.33-29.7 301.83-29.65 301.83-35.95Q302.58-35.65 304.43-35.35 306.28-35.05 307.83-35.05L307.83-35.05 324.73-35.05Q327.18-35.05 328.8-35.43 330.43-35.8 330.78-35.95L330.78-35.95 330.78-29.65 330.28-29.7ZM358.43-0.5L359.08-0.5Q360.38-0.5 361.3-1.43 362.23-2.35 362.28-3.6L362.28-3.6 362.28-16.55 341.83-16.55 341.83-3.6Q341.83-2.3 342.78-1.4 343.73-0.5 345.03-0.5L345.03-0.5 345.68-0.5 345.68 0 334.73 0 334.73-0.5 335.38-0.5Q336.68-0.5 337.6-1.4 338.53-2.3 338.58-3.6L338.58-3.6 338.58-31.4Q338.53-32.7 337.6-33.6 336.68-34.5 335.38-34.5L335.38-34.5 334.73-34.5 334.73-35 345.68-35 345.68-34.5 345.03-34.5Q343.73-34.5 342.8-33.6 341.88-32.7 341.83-31.4L341.83-31.4 341.83-18.05 362.28-18.05 362.28-31.4Q362.23-33.2 360.68-34.1L360.68-34.1Q359.93-34.5 359.08-34.5L359.08-34.5 358.43-34.5 358.43-35 369.38-35 369.38-34.5 368.73-34.5Q367.43-34.5 366.5-33.58 365.58-32.65 365.53-31.35L365.53-31.35 365.53-3.6Q365.58-2.3 366.5-1.4 367.43-0.5 368.73-0.5L368.73-0.5 369.38-0.5 369.38 0 358.43 0 358.43-0.5ZM375.37-0.5L376.02-0.5Q377.32-0.5 378.25-1.43 379.17-2.35 379.22-3.65L379.22-3.65 379.22-31.4Q379.17-32.7 378.25-33.6 377.32-34.5 376.02-34.5L376.02-34.5 375.37-34.5 375.37-35 386.32-35 386.32-34.5 385.67-34.5Q384.37-34.5 383.45-33.6 382.52-32.7 382.47-31.4L382.47-31.4 382.47-3.65Q382.47-2.35 383.42-1.43 384.37-0.5 385.67-0.5L385.67-0.5 386.32-0.5 386.32 0 375.37 0 375.37-0.5Z" fill="white"></path></g></svg></g></svg></g></svg></g></svg></g></svg></g><defs><mask></mask></defs><mask><g id="SvgjsG6759"><svg viewBox="0 0 395.52 45.83943617854346" height="45.83943617854346" width="395.52"><g><svg viewBox="0 0 395.52000000000004 45.839436178543465" height="45.83943617854346" width="395.52"><g><svg viewBox="0 0 395.52000000000004 45.839436178543465" height="45.839436178543465" width="395.52000000000004"><g id="SvgjsG6758"><svg viewBox="0 0 395.52000000000004 45.839436178543465" height="45.839436178543465" width="395.52000000000004" id="SvgjsSvg6757"><g><svg viewBox="0 0 395.52000000000004 45.839436178543465" height="45.839436178543465" width="395.52000000000004"><g transform="matrix(1,0,0,1,0,0)"><svg width="395.52000000000004" viewBox="0 -35.95 386.32 44.400000000000006" height="45.839436178543465" data-palette-color="url(#efc4dfce-bac5-45c4-8051-ca180bf88661)"><g class="wordmark-text-0" data-fill-palette-color="primary" id="SvgjsG6756"><path d="M19.75-21.8L19.75-21.8Q18.85-20.85 17.7-20.4L17.7-20.4Q22.6-19.7 25.15-16.93 27.7-14.15 27.7-10.15L27.7-10.15Q27.7-5.3 23.8-2.3 19.9 0.7 13.55 0.7 7.2 0.7 3.6-2.43 0-5.55 0-11.25L0-11.25Q0-11.55 0-11.85L0-11.85 0.55-11.95Q1.55-4.5 6.75-2.3L6.75-2.3 6.75-31.4Q6.65-32.75 5.73-33.63 4.8-34.5 3.5-34.5L3.5-34.5 2.9-34.5 2.9-35 11.3-35Q16-35 18.82-32.85 21.65-30.7 21.65-27.23 21.65-23.75 19.75-21.8ZM10.65-33.4L10-33.4 10-1.4Q11.65-1.15 13.8-1.15L13.8-1.15Q18.6-1.15 21.28-3.73 23.95-6.3 23.95-10.4L23.95-10.4Q23.95-12.6 23.13-14.3 22.3-16 21.05-16.95L21.05-16.95Q17.75-19.5 11.75-19.5L11.75-19.5Q11.7-19.5 11.7-19.5L11.7-19.5 11.65-19.95Q11.7-19.95 11.7-19.95L11.7-19.95Q14.25-19.95 16.07-21.63 17.9-23.3 17.9-26.8L17.9-26.8Q17.9-33.4 10.65-33.4L10.65-33.4 10.65-33.4ZM43-33.45L43-33.45 39.8-33.45 39.8-3.65Q39.8-2.35 40.72-1.43 41.65-0.5 43-0.5L43-0.5 43.6-0.5 43.65 0 32.7 0 32.7-0.5 33.35-0.5Q34.65-0.5 35.57-1.4 36.5-2.3 36.55-3.6L36.55-3.6 36.55-31.35Q36.5-32.65 35.57-33.58 34.65-34.5 33.35-34.5L33.35-34.5 32.7-34.5 32.7-35 46.2-35Q50.75-35 53.35-32.48 55.95-29.95 55.95-25.93 55.95-21.9 53.47-18.98 51-16.05 47.45-16.05L47.45-16.05Q48.2-15.7 49.22-14.68 50.25-13.65 51.05-12.55L51.05-12.55Q55.35-6.4 56.65-4.98 57.95-3.55 58.5-3.03 59.05-2.5 59.7-2 60.35-1.5 61-1.2L61-1.2Q62.45-0.5 64.1-0.5L64.1-0.5 64.1 0 61.35 0Q59.2 0 57.35-0.78 55.5-1.55 54.57-2.38 53.65-3.2 52.97-3.98 52.3-4.75 49.25-9.15 46.2-13.55 45.7-14.18 45.2-14.8 44.65-15.4L44.65-15.4Q43.05-17.1 41.45-17.1L41.45-17.1 41.45-17.6Q41.85-17.55 42.5-17.55 43.15-17.55 44.1-17.6L44.1-17.6Q50.3-17.75 51.9-22.8L51.9-22.8Q52.2-23.8 52.2-24.68 52.2-25.55 52.2-25.8L52.2-25.8Q52.1-29.15 50.45-31.2 48.8-33.25 46-33.4L46-33.4Q44.8-33.45 43-33.45ZM66.55-0.5L67.2-0.5Q68.5-0.5 69.42-1.43 70.34-2.35 70.39-3.65L70.39-3.65 70.39-31.4Q70.34-32.7 69.42-33.6 68.5-34.5 67.2-34.5L67.2-34.5 66.55-34.5 66.55-35 77.5-35 77.5-34.5 76.84-34.5Q75.55-34.5 74.62-33.6 73.7-32.7 73.65-31.4L73.65-31.4 73.65-3.65Q73.65-2.35 74.59-1.43 75.55-0.5 76.84-0.5L76.84-0.5 77.5-0.5 77.5 0 66.55 0 66.55-0.5ZM116.19-0.5L116.19-0.5 116.59-0.5 116.59 0 105.34 0 105.34-0.5 105.79-0.5Q106.84-0.5 107.37-1.18 107.89-1.85 107.89-2.45 107.89-3.05 107.69-3.65L107.69-3.65 104.49-12.15 90.99-12.15 87.64-3.6Q87.44-3 87.44-2.43 87.44-1.85 87.97-1.18 88.49-0.5 89.54-0.5L89.54-0.5 89.99-0.5 89.99 0 79.94 0 79.94-0.5 80.39-0.5Q81.64-0.5 82.84-1.3 84.04-2.1 84.79-3.65L84.79-3.65 96.09-30.55Q97.94-34.6 97.94-35.7L97.94-35.7 98.39-35.7 111.79-3.65Q112.49-2.1 113.69-1.3 114.89-0.5 116.19-0.5ZM97.89-29.7L91.59-13.65 103.89-13.65 97.89-29.7ZM155.84-34.5L154.94-34.5Q153.69-34.5 152.79-33.63 151.89-32.75 151.84-31.5L151.84-31.5 151.84-5.7Q151.84-2.8 152.19-0.2L152.19-0.2 152.29 0.7 151.84 0.7 124.59-28.4 124.59-3.5Q124.59-2.25 125.49-1.38 126.39-0.5 127.64-0.5L127.64-0.5 128.59-0.5 128.59 0 118.29 0 118.29-0.5 119.24-0.5Q120.49-0.5 121.39-1.38 122.29-2.25 122.29-3.55L122.29-3.55 122.29-29.5Q122.29-32.55 121.94-34.95L121.94-34.95 121.84-35.75 122.34-35.75 149.59-6.65 149.59-31.45Q149.54-32.75 148.64-33.63 147.74-34.5 146.49-34.5L146.49-34.5 145.54-34.5 145.54-35 155.84-35 155.84-34.5Z" fill="black"></path><path d="M181.64-0.5L181.64-0.5 182.29-0.5 182.29 0 171.34 0 171.34-0.5 171.99-0.5Q173.29-0.5 174.21-1.43 175.14-2.35 175.19-3.65L175.19-3.65 175.19-31.4Q175.14-32.7 174.21-33.6 173.29-34.5 171.99-34.5L171.99-34.5 171.34-34.5 171.34-35 182.29-35 182.29-34.5 181.64-34.5Q180.34-34.5 179.41-33.6 178.49-32.7 178.44-31.4L178.44-31.4 178.44-3.65Q178.44-2.35 179.39-1.43 180.34-0.5 181.64-0.5ZM216.29 7.5L216.29 7.5 216.29 8Q214.39 8.45 212.49 8.45L212.49 8.45Q204.29 8.45 196.59 0.25L196.59 0.25 180.04-17.4 191.84-32.2Q192.24-32.7 192.24-33.1 192.24-33.5 192.09-33.8L192.09-33.8Q191.69-34.55 190.64-34.55L190.64-34.55 190.14-34.55 190.14-35 200.69-35 200.69-34.55 200.49-34.55Q197.19-34.55 195.09-32.2L195.09-32.2 183.44-18.75 200.44-0.6Q203.74 2.95 207.86 5.23 211.99 7.5 216.29 7.5ZM204.79-0.5L205.44-0.5Q206.74-0.5 207.66-1.43 208.59-2.35 208.64-3.65L208.64-3.65 208.64-31.4Q208.59-32.7 207.66-33.6 206.74-34.5 205.44-34.5L205.44-34.5 204.79-34.5 204.79-35 215.74-35 215.74-34.5 215.09-34.5Q213.79-34.5 212.86-33.6 211.94-32.7 211.89-31.4L211.89-31.4 211.89-3.65Q211.89-2.35 212.84-1.43 213.79-0.5 215.09-0.5L215.09-0.5 215.74-0.5 215.74 0 204.79 0 204.79-0.5ZM263.68-0.5L263.68-0.5 264.48-0.5 264.48 0 253.63 0 253.63-0.45 254.38-0.45Q255.23-0.45 255.83-1.1 256.43-1.75 256.33-2.6L256.33-2.6 254.08-27.75 243.58-4.4Q242.18-1.35 241.88 0.7L241.88 0.7 241.38 0.7 228.58-27.05 226.43-2.6Q226.33-1.8 226.93-1.13 227.53-0.45 228.38-0.45L228.38-0.45 229.13-0.45 229.13 0 219.43 0 219.43-0.5 220.23-0.5Q221.63-0.5 222.66-1.35 223.68-2.2 223.88-3.65L223.88-3.65 227.63-35.7 228.13-35.7 242.08-5.55 255.73-35.7 256.18-35.7 260.03-3.65Q260.23-2.2 261.28-1.35 262.33-0.5 263.68-0.5ZM300.98-0.5L300.98-0.5 301.38-0.5 301.38 0 290.13 0 290.13-0.5 290.58-0.5Q291.63-0.5 292.16-1.18 292.68-1.85 292.68-2.45 292.68-3.05 292.48-3.65L292.48-3.65 289.28-12.15 275.78-12.15 272.43-3.6Q272.23-3 272.23-2.43 272.23-1.85 272.76-1.18 273.28-0.5 274.33-0.5L274.33-0.5 274.78-0.5 274.78 0 264.73 0 264.73-0.5 265.18-0.5Q266.43-0.5 267.63-1.3 268.83-2.1 269.58-3.65L269.58-3.65 280.88-30.55Q282.73-34.6 282.73-35.7L282.73-35.7 283.18-35.7 296.58-3.65Q297.28-2.1 298.48-1.3 299.68-0.5 300.98-0.5ZM282.68-29.7L276.38-13.65 288.68-13.65 282.68-29.7ZM330.28-29.7L330.28-30.55Q330.28-31.75 329.43-32.63 328.58-33.5 327.43-33.55L327.43-33.55 317.93-33.55 317.93-3.6Q317.98-2.3 318.9-1.4 319.83-0.5 321.13-0.5L321.13-0.5 321.78-0.5 321.78 0 310.83 0 310.83-0.5 311.48-0.5Q312.78-0.5 313.7-1.4 314.63-2.3 314.68-3.55L314.68-3.55 314.68-33.55 305.18-33.55Q303.98-33.5 303.15-32.63 302.33-31.75 302.33-30.55L302.33-30.55 302.33-29.7 301.83-29.65 301.83-35.95Q302.58-35.65 304.43-35.35 306.28-35.05 307.83-35.05L307.83-35.05 324.73-35.05Q327.18-35.05 328.8-35.43 330.43-35.8 330.78-35.95L330.78-35.95 330.78-29.65 330.28-29.7ZM358.43-0.5L359.08-0.5Q360.38-0.5 361.3-1.43 362.23-2.35 362.28-3.6L362.28-3.6 362.28-16.55 341.83-16.55 341.83-3.6Q341.83-2.3 342.78-1.4 343.73-0.5 345.03-0.5L345.03-0.5 345.68-0.5 345.68 0 334.73 0 334.73-0.5 335.38-0.5Q336.68-0.5 337.6-1.4 338.53-2.3 338.58-3.6L338.58-3.6 338.58-31.4Q338.53-32.7 337.6-33.6 336.68-34.5 335.38-34.5L335.38-34.5 334.73-34.5 334.73-35 345.68-35 345.68-34.5 345.03-34.5Q343.73-34.5 342.8-33.6 341.88-32.7 341.83-31.4L341.83-31.4 341.83-18.05 362.28-18.05 362.28-31.4Q362.23-33.2 360.68-34.1L360.68-34.1Q359.93-34.5 359.08-34.5L359.08-34.5 358.43-34.5 358.43-35 369.38-35 369.38-34.5 368.73-34.5Q367.43-34.5 366.5-33.58 365.58-32.65 365.53-31.35L365.53-31.35 365.53-3.6Q365.58-2.3 366.5-1.4 367.43-0.5 368.73-0.5L368.73-0.5 369.38-0.5 369.38 0 358.43 0 358.43-0.5ZM375.37-0.5L376.02-0.5Q377.32-0.5 378.25-1.43 379.17-2.35 379.22-3.65L379.22-3.65 379.22-31.4Q379.17-32.7 378.25-33.6 377.32-34.5 376.02-34.5L376.02-34.5 375.37-34.5 375.37-35 386.32-35 386.32-34.5 385.67-34.5Q384.37-34.5 383.45-33.6 382.52-32.7 382.47-31.4L382.47-31.4 382.47-3.65Q382.47-2.35 383.42-1.43 384.37-0.5 385.67-0.5L385.67-0.5 386.32-0.5 386.32 0 375.37 0 375.37-0.5Z" fill="black"></path></g></svg></g></svg></g></svg></g></svg></g></svg></g><defs><mask></mask></defs></svg><rect width="395.52" height="45.83943617854346" fill="black" stroke="none" visibility="hidden"></rect></g></mask></svg><rect width="395.52" height="45.83943617854346" fill="black" stroke="none" visibility="hidden"></rect></g></mask><linearGradient x1="0.054" x2="0.941" y1="0.5" y2="0.5" id="3362d981-5a2e-48c3-ad48-27632e1f7048"><stop stop-color="#9c7945" offset="0"></stop><stop stop-color="#faf3aa" offset="0.498"></stop><stop stop-color="#9c7945" offset="1"></stop></linearGradient><rect width="395.52" height="45.83943617854346" fill="url(#3362d981-5a2e-48c3-ad48-27632e1f7048)" mask="url(#00a6d887-a4a2-40e4-9c5b-c2f3b3aff8d8)" data-fill-palette-color="secondary"></rect></svg><rect width="395.52" height="45.83943617854346" fill="none" stroke="none" visibility="hidden"></rect></g></svg></g></svg>